<svg height='300px' width='300px'  fill="#000000" xmlns:dc="http://purl.org/dc/elements/1.1/" xmlns:cc="http://creativecommons.org/ns#" xmlns:rdf="http://www.w3.org/1999/02/22-rdf-syntax-ns#" xmlns:svg="http://www.w3.org/2000/svg" xmlns="http://www.w3.org/2000/svg" xmlns:sodipodi="http://sodipodi.sourceforge.net/DTD/sodipodi-0.dtd" xmlns:inkscape="http://www.inkscape.org/namespaces/inkscape" viewBox="0 0 8.4666665 8.4666669" version="1.1" x="0px" y="0px"><g transform="translate(0,-288.53332)"><path d="m 4.1010003,293.16329 c -0.2906922,0 -0.529182,0.23853 -0.529182,0.52921 0,0.29072 0.2384898,0.52923 0.529182,0.52923 0.2906919,0 0.5291817,-0.23851 0.5291817,-0.52923 0,-0.29068 -0.2384898,-0.52921 -0.5291817,-0.52921 z m 0,0.26462 c 0.1476965,0 0.264591,0.1169 0.264591,0.26459 0,0.1477 -0.1168945,0.26461 -0.264591,0.26461 -0.1476965,0 -0.264591,-0.11691 -0.264591,-0.26461 0,-0.14769 0.1168945,-0.26459 0.264591,-0.26459 z" style="color:#000000;font-style:normal;font-variant:normal;font-weight:normal;font-stretch:normal;font-size:medium;line-height:normal;font-family:sans-serif;text-indent:0;text-align:start;text-decoration:none;text-decoration-line:none;text-decoration-style:solid;text-decoration-color:#000000;letter-spacing:normal;word-spacing:normal;text-transform:none;direction:ltr;writing-mode:lr-tb;baseline-shift:baseline;text-anchor:start;white-space:normal;clip-rule:nonzero;display:inline;overflow:visible;visibility:visible;opacity:1;isolation:auto;mix-blend-mode:normal;color-interpolation:sRGB;color-interpolation-filters:linearRGB;solid-color:#000000;solid-opacity:1;fill:#000000;fill-opacity:1;fill-rule:nonzero;stroke:none;stroke-width:1;stroke-linecap:butt;stroke-linejoin:round;stroke-miterlimit:4;stroke-dasharray:none;stroke-dashoffset:0;stroke-opacity:1;color-rendering:auto;image-rendering:auto;shape-rendering:auto;text-rendering:auto;enable-background:accumulate"></path><path d="m 4.1010003,289.72343 c -0.2908784,0 -0.529182,0.23832 -0.529182,0.52922 l 0,2.11682 c 0,0.29092 0.2383036,0.52922 0.529182,0.52922 0.2908781,0 0.5291817,-0.2383 0.5291817,-0.52922 l 0,-2.11682 c 0,-0.2909 -0.2383036,-0.52922 -0.5291817,-0.52922 z m 0,0.26459 c 0.1488718,0 0.264591,0.11574 0.264591,0.26463 l 0,2.11682 c 0,0.14892 -0.1157192,0.26462 -0.264591,0.26462 -0.1488718,0 -0.264591,-0.1157 -0.264591,-0.26462 l 0,-2.11682 c 0,-0.14889 0.1157192,-0.26463 0.264591,-0.26463 z" style="color:#000000;font-style:normal;font-variant:normal;font-weight:normal;font-stretch:normal;font-size:medium;line-height:normal;font-family:sans-serif;text-indent:0;text-align:start;text-decoration:none;text-decoration-line:none;text-decoration-style:solid;text-decoration-color:#000000;letter-spacing:normal;word-spacing:normal;text-transform:none;direction:ltr;writing-mode:lr-tb;baseline-shift:baseline;text-anchor:start;white-space:normal;clip-rule:nonzero;display:inline;overflow:visible;visibility:visible;opacity:1;isolation:auto;mix-blend-mode:normal;color-interpolation:sRGB;color-interpolation-filters:linearRGB;solid-color:#000000;solid-opacity:1;fill:#000000;fill-opacity:1;fill-rule:nonzero;stroke:none;stroke-width:1;stroke-linecap:butt;stroke-linejoin:round;stroke-miterlimit:4;stroke-dasharray:none;stroke-dashoffset:0;stroke-opacity:1;color-rendering:auto;image-rendering:auto;shape-rendering:auto;text-rendering:auto;enable-background:accumulate"></path><path d="m 1.8628294,289.59785 c -0.3309664,0.004 -0.5800882,0.31511 -0.5110946,0.63879 0.040618,0.20585 0.00457,0.41934 -0.1012887,0.6 l -0.31781933,0.54316 c -0.54967099,0.93813 -0.53694141,2.1065 0.033591,3.03212 l 0.52918193,0.8579 0.069765,0.55608 a 0.13230871,0.13231592 0 0 0 0.1312619,0.11575 l 4.7626371,0 a 0.13230871,0.13231592 0 0 0 0.1317789,-0.11935 l 0.053228,-0.55042 0.6170343,-0.98245 c 0.5327066,-0.84734 0.5499159,-1.92411 0.043926,-2.78767 l -0.389651,-0.66512 C 6.809255,290.6555 6.772984,290.44143 6.814091,290.23508 l -0.00103,0.004 c 0.037546,-0.16499 0.00225,-0.31987 -0.080101,-0.43103 -0.082343,-0.11115 -0.204152,-0.17965 -0.3322892,-0.20516 -0.1281369,-0.0254 -0.2668592,-0.009 -0.3855172,0.062 -0.1181542,0.0708 -0.2097323,0.20017 -0.2387521,0.36588 -0.090981,0.4594 -0.010869,0.93657 0.2258328,1.34061 l 0.3896513,0.66514 c 0.3073443,0.52456 0.2971329,1.17594 -0.026355,1.69046 l -0.4790544,0.76126 -3.6298593,0 -0.3891348,-0.63051 c -0.3660286,-0.59386 -0.3743966,-1.34123 -0.021705,-1.94319 l 0.318336,-0.54316 c 0.2367016,-0.40404 0.3168145,-0.88121 0.2258325,-1.34061 -0.046799,-0.25213 -0.2701768,-0.43558 -0.526598,-0.43256 z m 4.4861604,0.2641 c 0.07002,0.014 0.1331214,0.0522 0.1710539,0.10335 0.037933,0.0512 0.057869,0.1146 0.035141,0.21445 a 0.13230871,0.13231592 0 0 0 -5.292e-4,0.004 c -0.053771,0.26995 -0.00657,0.5501 0.1322954,0.7871 l 0.3896516,0.66514 c 0.4562168,0.77863 0.4410242,1.74875 -0.039276,2.51275 l -0.634088,1.0088 a 0.13230871,0.13231592 0 0 0 -0.019637,0.0579 l -0.04496,0.46204 -4.5254233,0 -0.058913,-0.46876 a 0.13230871,0.13231592 0 0 0 -0.018604,-0.0532 l -0.5441679,-0.88254 c -0.51929188,-0.84248 -0.53084613,-1.90528 -0.03049,-2.75924 l 0.3178192,-0.54319 c 0.138864,-0.237 0.1860664,-0.51715 0.1322955,-0.7871 a 0.13230871,0.13231592 0 0 0 -5.16e-4,-0.003 c -0.03534,-0.1658 0.085973,-0.31741 0.2558058,-0.31939 0.1297606,-0.003 0.2399289,0.0887 0.2635573,0.21602 a 0.13230871,0.13231592 0 0 0 5.16e-4,0.003 c 0.078968,0.39645 0.00948,0.80893 -0.1948258,1.15766 l -0.318336,0.54266 c -0.4019353,0.68596 -0.3923279,1.53877 0.024806,2.21552 l 0.4278932,0.69303 a 0.13230871,0.13231592 0 0 0 0.1126577,0.0635 l 3.7771393,0 a 0.13230871,0.13231592 0 0 0 0.1116243,-0.062 l 0.5178129,-0.82277 c 0.3757771,-0.59769 0.3879813,-1.35562 0.031007,-1.96488 l -0.3896513,-0.66462 c -0.2043047,-0.34873 -0.2737935,-0.76119 -0.194826,-1.15766 a 0.13230871,0.13231592 0 0 0 5.292e-4,-0.003 c 0.017312,-0.10095 0.060013,-0.15223 0.1147252,-0.18504 0.054712,-0.0328 0.1279059,-0.0439 0.1979263,-0.0299 z" style="color:#000000;font-style:normal;font-variant:normal;font-weight:normal;font-stretch:normal;font-size:medium;line-height:normal;font-family:sans-serif;text-indent:0;text-align:start;text-decoration:none;text-decoration-line:none;text-decoration-style:solid;text-decoration-color:#000000;letter-spacing:normal;word-spacing:normal;text-transform:none;direction:ltr;writing-mode:lr-tb;baseline-shift:baseline;text-anchor:start;white-space:normal;clip-rule:nonzero;display:inline;overflow:visible;visibility:visible;opacity:1;isolation:auto;mix-blend-mode:normal;color-interpolation:sRGB;color-interpolation-filters:linearRGB;solid-color:#000000;solid-opacity:1;fill:#000000;fill-opacity:1;fill-rule:evenodd;stroke:none;stroke-width:1;stroke-linecap:round;stroke-linejoin:round;stroke-miterlimit:4;stroke-dasharray:none;stroke-dashoffset:0;stroke-opacity:1;color-rendering:auto;image-rendering:auto;shape-rendering:auto;text-rendering:auto;enable-background:accumulate"></path><path d="m 2.381159,295.28014 0,0.52922 0.2645908,0 0,-0.52922 z" style="color:#000000;font-style:normal;font-variant:normal;font-weight:normal;font-stretch:normal;font-size:medium;line-height:normal;font-family:sans-serif;text-indent:0;text-align:start;text-decoration:none;text-decoration-line:none;text-decoration-style:solid;text-decoration-color:#000000;letter-spacing:normal;word-spacing:normal;text-transform:none;direction:ltr;writing-mode:lr-tb;baseline-shift:baseline;text-anchor:start;white-space:normal;clip-rule:nonzero;display:inline;overflow:visible;visibility:visible;opacity:1;isolation:auto;mix-blend-mode:normal;color-interpolation:sRGB;color-interpolation-filters:linearRGB;solid-color:#000000;solid-opacity:1;fill:#000000;fill-opacity:1;fill-rule:evenodd;stroke:none;stroke-width:1px;stroke-linecap:butt;stroke-linejoin:miter;stroke-miterlimit:4;stroke-dasharray:none;stroke-dashoffset:0;stroke-opacity:1;color-rendering:auto;image-rendering:auto;shape-rendering:auto;text-rendering:auto;enable-background:accumulate"></path><path d="m 3.4395229,295.28014 0,0.52922 0.264591,0 0,-0.52922 z" style="color:#000000;font-style:normal;font-variant:normal;font-weight:normal;font-stretch:normal;font-size:medium;line-height:normal;font-family:sans-serif;text-indent:0;text-align:start;text-decoration:none;text-decoration-line:none;text-decoration-style:solid;text-decoration-color:#000000;letter-spacing:normal;word-spacing:normal;text-transform:none;direction:ltr;writing-mode:lr-tb;baseline-shift:baseline;text-anchor:start;white-space:normal;clip-rule:nonzero;display:inline;overflow:visible;visibility:visible;opacity:1;isolation:auto;mix-blend-mode:normal;color-interpolation:sRGB;color-interpolation-filters:linearRGB;solid-color:#000000;solid-opacity:1;fill:#000000;fill-opacity:1;fill-rule:evenodd;stroke:none;stroke-width:1px;stroke-linecap:butt;stroke-linejoin:miter;stroke-miterlimit:4;stroke-dasharray:none;stroke-dashoffset:0;stroke-opacity:1;color-rendering:auto;image-rendering:auto;shape-rendering:auto;text-rendering:auto;enable-background:accumulate"></path><path d="m 4.4978867,295.28014 0,0.52922 0.264591,0 0,-0.52922 z" style="color:#000000;font-style:normal;font-variant:normal;font-weight:normal;font-stretch:normal;font-size:medium;line-height:normal;font-family:sans-serif;text-indent:0;text-align:start;text-decoration:none;text-decoration-line:none;text-decoration-style:solid;text-decoration-color:#000000;letter-spacing:normal;word-spacing:normal;text-transform:none;direction:ltr;writing-mode:lr-tb;baseline-shift:baseline;text-anchor:start;white-space:normal;clip-rule:nonzero;display:inline;overflow:visible;visibility:visible;opacity:1;isolation:auto;mix-blend-mode:normal;color-interpolation:sRGB;color-interpolation-filters:linearRGB;solid-color:#000000;solid-opacity:1;fill:#000000;fill-opacity:1;fill-rule:evenodd;stroke:none;stroke-width:1px;stroke-linecap:butt;stroke-linejoin:miter;stroke-miterlimit:4;stroke-dasharray:none;stroke-dashoffset:0;stroke-opacity:1;color-rendering:auto;image-rendering:auto;shape-rendering:auto;text-rendering:auto;enable-background:accumulate"></path><path d="m 5.5562505,295.28014 0,0.52922 0.264591,0 0,-0.52922 z" style="color:#000000;font-style:normal;font-variant:normal;font-weight:normal;font-stretch:normal;font-size:medium;line-height:normal;font-family:sans-serif;text-indent:0;text-align:start;text-decoration:none;text-decoration-line:none;text-decoration-style:solid;text-decoration-color:#000000;letter-spacing:normal;word-spacing:normal;text-transform:none;direction:ltr;writing-mode:lr-tb;baseline-shift:baseline;text-anchor:start;white-space:normal;clip-rule:nonzero;display:inline;overflow:visible;visibility:visible;opacity:1;isolation:auto;mix-blend-mode:normal;color-interpolation:sRGB;color-interpolation-filters:linearRGB;solid-color:#000000;solid-opacity:1;fill:#000000;fill-opacity:1;fill-rule:evenodd;stroke:none;stroke-width:1px;stroke-linecap:butt;stroke-linejoin:miter;stroke-miterlimit:4;stroke-dasharray:none;stroke-dashoffset:0;stroke-opacity:1;color-rendering:auto;image-rendering:auto;shape-rendering:auto;text-rendering:auto;enable-background:accumulate"></path></g></svg>