<svg height='300px' width='300px'  fill="#000000" xmlns="http://www.w3.org/2000/svg" data-name="Layer 1" viewBox="0 0 100 100" x="0px" y="0px"><title>64</title><path d="M5.99982,95h47a1,1,0,0,0,1-1V15.40424a1,1,0,0,0-1-.99994H39.6275V5.99994a1,1,0,0,0-1-.99994H20.37213a1,1,0,0,0-1,.99994V14.4043H5.99982a1,1,0,0,0-1,.99994V94A1,1,0,0,0,5.99982,95Zm3-76.5957h41V91h-41Zm4,21.14648h33V52.69971h-33Zm0,17.14893h33V69.84863h-33Zm0-34.29541h33V35.55078h-33Zm0,51.44433h33V87h-33ZM90.6413,24.15649,84.46954,43.14258h9.638a.89065.89065,0,0,1,.69886,1.44275L69.30408,76.87a.64174.64174,0,0,1-1.13581-.50788l4.6482-26.69287H64.015a.97233.97233,0,0,1-.95556-1.1521l4.67309-24.841a.97237.97237,0,0,1,.95557-.79261h21.0285A.97231.97231,0,0,1,90.6413,24.15649Z"></path></svg>