<svg height='300px' width='300px'  fill="#000000" xmlns="http://www.w3.org/2000/svg" xmlns:xlink="http://www.w3.org/1999/xlink" viewBox="0 0 100 100" version="1.1" x="0px" y="0px"><title>Artboard 1 Copy 110</title><desc>Created with Sketch.</desc><g stroke="none" stroke-width="1" fill="none" fill-rule="evenodd"><g fill="#000000"><path d="M69,40 L71,40 L71,30 L69,30 L69,40 Z M30,92.003 L29.999,8 L52,8 L52,7.998 L52.001,92 L30,92.003 Z M73,26 L72,26 L72,24.998 C72,23.895 71.112,23 70,23 C68.896,23 68,23.898 68,24.998 L68,26 L67,26 C65.888,26 65,26.893 65,27.995 L65,42.005 C65,43.107 65.896,44 67,44 L68,44 L68,79 L68,79.995 L68,89.712 C68,91.252 67.346,92 66,92 C64.654,92 64,91.252 64,89.712 L64,82.009 L64,79 L64,76.287 L64,65.991 L64,58.577 C64,54.951 61.051,52 57.425,52 L56,52 L56,7.998 C56,5.796 54.209,4 52.001,4 L29.999,4 C27.787,4 26,5.79 26,7.998 L26,92.003 C26,94.203 27.791,96 29.999,96 L52.001,96 C54.213,96 56,94.21 56,92.003 L56,56 L57.425,56 C58.845,56 60,57.156 60,58.577 L60,65.991 L60,76.287 L60,79 L60,82.009 L60,89.712 C60,93.473 62.411,96 66,96 C69.589,96 72,93.473 72,89.712 L72,79.995 L72,79 L72,44 L73,44 C74.112,44 75,43.107 75,42.005 L75,27.995 C75,26.893 74.104,26 73,26 L73,26 Z"></path><path d="M47.9326,57.4902 C47.9476,57.4302 47.9586,57.3702 47.9686,57.3082 C47.9806,57.2342 47.9886,57.1622 47.9916,57.0882 C47.9926,57.0582 47.9996,57.0302 47.9996,57.0002 C47.9996,56.9702 47.9926,56.9442 47.9916,56.9152 C47.9886,56.8422 47.9806,56.7692 47.9696,56.6972 C47.9596,56.6362 47.9496,56.5772 47.9346,56.5182 C47.9186,56.4542 47.8986,56.3912 47.8756,56.3292 C47.8546,56.2682 47.8316,56.2102 47.8056,56.1522 C47.7776,56.0942 47.7456,56.0372 47.7116,55.9802 C47.6796,55.9272 47.6476,55.8752 47.6116,55.8242 C47.5726,55.7702 47.5286,55.7202 47.4836,55.6702 C47.4416,55.6232 47.3996,55.5782 47.3526,55.5352 C47.3056,55.4922 47.2556,55.4522 47.2036,55.4132 C47.1486,55.3702 47.0916,55.3312 47.0326,55.2952 C47.0066,55.2792 46.9856,55.2592 46.9576,55.2442 C46.9296,55.2282 46.9006,55.2212 46.8716,55.2082 C46.8076,55.1772 46.7426,55.1492 46.6736,55.1252 C46.6146,55.1032 46.5556,55.0852 46.4956,55.0692 C46.4316,55.0522 46.3676,55.0402 46.3006,55.0302 C46.2326,55.0192 46.1646,55.0122 46.0956,55.0102 C46.0636,55.0082 46.0336,55.0002 45.9996,55.0002 L39.3696,55.0002 L43.7556,46.9572 C44.2856,45.9882 43.9276,44.7732 42.9576,44.2442 C41.9876,43.7152 40.7736,44.0732 40.2446,45.0422 L34.2446,56.0422 C34.2286,56.0702 34.2216,56.1002 34.2066,56.1292 C34.1766,56.1912 34.1506,56.2562 34.1256,56.3222 C34.1036,56.3852 34.0836,56.4462 34.0676,56.5102 C34.0526,56.5692 34.0406,56.6302 34.0316,56.6912 C34.0196,56.7652 34.0116,56.8382 34.0086,56.9122 C34.0076,56.9412 33.9996,56.9692 33.9996,57.0002 C33.9996,57.0292 34.0076,57.0552 34.0086,57.0852 C34.0116,57.1582 34.0196,57.2302 34.0306,57.3032 C34.0396,57.3632 34.0506,57.4232 34.0656,57.4812 C34.0806,57.5462 34.1016,57.6082 34.1236,57.6712 C34.1456,57.7312 34.1676,57.7902 34.1946,57.8472 C34.2226,57.9062 34.2546,57.9632 34.2876,58.0192 C34.3206,58.0732 34.3526,58.1252 34.3886,58.1762 C34.4276,58.2292 34.4716,58.2792 34.5166,58.3302 C34.5586,58.3772 34.6006,58.4222 34.6476,58.4652 C34.6946,58.5082 34.7446,58.5482 34.7956,58.5872 C34.8516,58.6302 34.9086,58.6692 34.9676,58.7052 C34.9936,58.7202 35.0146,58.7412 35.0416,58.7562 C35.0646,58.7672 35.0886,58.7712 35.1116,58.7832 C35.2126,58.8342 35.3186,58.8742 35.4276,58.9072 C35.4686,58.9192 35.5086,58.9352 35.5496,58.9452 C35.6916,58.9782 35.8376,59.0002 35.9896,59.0002 L35.9976,59.0002 L35.9986,59.0002 L35.9996,59.0002 L42.6306,59.0002 L38.2446,67.0422 C37.7146,68.0112 38.0726,69.2262 39.0416,69.7562 C39.3466,69.9222 39.6746,70.0002 39.9976,70.0002 C40.7056,70.0002 41.3926,69.6232 41.7556,68.9582 L47.7556,57.9582 C47.7716,57.9292 47.7786,57.8992 47.7926,57.8712 C47.8236,57.8082 47.8496,57.7442 47.8736,57.6772 C47.8966,57.6152 47.9156,57.5532 47.9326,57.4902"></path><path d="M37,18 L45,18 L45,14 L37,14 L37,18 Z M47.006,10 L34.994,10 C33.895,10 33,10.899 33,12.008 L33,19.992 C33,21.098 33.893,22 34.994,22 L47.006,22 C48.105,22 49,21.101 49,19.992 L49,12.008 C49,10.902 48.107,10 47.006,10 L47.006,10 Z"></path></g></g></svg>