<svg height='300px' width='300px'  fill="#000000" xmlns="http://www.w3.org/2000/svg" data-name="Layer 1" viewBox="0 0 100 100" x="0px" y="0px"><title>Artboard 24</title><path d="M24.31,49.64A5.85,5.85,0,0,0,17,55.3v2.38a5.86,5.86,0,0,0,5.85,5.85H31.9A5.85,5.85,0,0,0,33.38,52Zm7.59,9.89H22.83A1.85,1.85,0,0,1,21,57.67V55.3a1.85,1.85,0,0,1,1.85-1.85,1.88,1.88,0,0,1,.47.06l9.07,2.38a1.85,1.85,0,0,1-.47,3.64ZM50.48,14.15a94.17,94.17,0,0,0-16.28,1C31,15.77,26.89,16.94,24,21c-1.49,2.14-4.16,7.82-7,14.82a2,2,0,0,1-3.22.71,6.28,6.28,0,0,0-4.19-1.93l-1.74,0A2.91,2.91,0,0,0,5,37.57c0,1,0,2.06,0,3.4a3.09,3.09,0,0,0,3,3l2.1,0h.28a2,2,0,0,1,1.6,3.2q-.35.46-.66.93A18.7,18.7,0,0,0,8.3,59V82.7a3,3,0,0,0,3,3h6.41a3,3,0,0,0,3-3V79a2,2,0,0,1,2-2h27a2,2,0,0,1,0,4h-25V82.7a7,7,0,0,1-7,7H11.24a7,7,0,0,1-7-7V59A22.94,22.94,0,0,1,6.88,47.89,7.08,7.08,0,0,1,1,41.06c0-1.41,0-2.57,0-3.63a6.94,6.94,0,0,1,6.75-6.77c.63,0,1.26,0,1.89,0A9.46,9.46,0,0,1,14.34,32c1.72-4.13,4.46-10.38,6.43-13.21,3.73-5.36,9.06-6.84,12.75-7.48a97.55,97.55,0,0,1,17-1.11,97.55,97.55,0,0,1,17,1.11c3.69.64,9,2.12,12.75,7.48a56.74,56.74,0,0,1,4.24,8.15,2,2,0,1,1-3.65,1.64A51.32,51.32,0,0,0,76.92,21C74.07,16.94,70,15.77,66.76,15.2A94.17,94.17,0,0,0,50.48,14.15ZM85.6,65.78a2,2,0,0,1,0,2.83l-9.05,9.05a2,2,0,0,1-2.83,0l-4.28-4.28a2,2,0,0,1,2.83-2.83l2.87,2.87,7.64-7.64A2,2,0,0,1,85.6,65.78ZM91,54.9h-.51v-9a13,13,0,1,0-26,0v9H64a8,8,0,0,0-8,8V81.85a8,8,0,0,0,8,8H91a8,8,0,0,0,8-8V62.9A8,8,0,0,0,91,54.9Zm-22.46-9a9,9,0,1,1,18,0v9h-18ZM95,81.85a4,4,0,0,1-4,4H64a4,4,0,0,1-4-4V62.9a4,4,0,0,1,4-4H91a4,4,0,0,1,4,4Z"></path></svg>