<svg height='300px' width='300px'  fill="#000000" xmlns="http://www.w3.org/2000/svg" data-name="Layer 1" viewBox="0 0 100 100" x="0px" y="0px"><title>Artboard 29</title><path d="M73.76,19.83a21.13,21.13,0,0,0-13.92,5.22L45.59,10.79,5,51.39H15.69V86.15H75.5v-7C78.82,76,95,59.7,95,41.06A21.26,21.26,0,0,0,73.76,19.83ZM13.37,47.92,45.59,15.7,57.42,27.52a21.1,21.1,0,0,0-4.89,13.54,34.79,34.79,0,0,0,.71,6.86ZM48.63,82.69H19.15V51.48h35A45.49,45.49,0,0,0,56,56.69h-7.4Zm12.67,0H52.09V60.16h5.58a63.65,63.65,0,0,0,3.63,6.16Zm10.73,0H64.77V71.1A76.18,76.18,0,0,0,72,79.15ZM73.76,76C69.64,71.9,56,57.1,56,41.06a17.77,17.77,0,1,1,35.54,0C91.53,57.08,77.88,71.89,73.76,76ZM26.09,72.3h15.6V56.69H26.09Zm3.47-12.14h8.66v8.67H29.56Zm44.2-29.75A10.65,10.65,0,1,0,84.41,41.06,10.67,10.67,0,0,0,73.76,30.41Zm0,17.84A7.19,7.19,0,1,1,81,41.06,7.2,7.2,0,0,1,73.76,48.25Z"></path></svg>