<svg height='300px' width='300px'  fill="#000000" xmlns="http://www.w3.org/2000/svg" viewBox="0 0 66 64" x="0px" y="0px"><path fill="#000000" d="M703,463.435201 L703,459 C703,457.895431 703.895431,457 705,457 C706.104569,457 707,457.895431 707,459 L707,459.879646 L709.671272,457.505181 C710.429044,456.831606 711.570956,456.831606 712.328728,457.505181 L721.328728,465.505181 C722.154293,466.239017 722.228655,467.503162 721.494819,468.328728 C721.099824,468.773097 720.551186,468.999824 720,469.000021 L720,478 C720,479.104569 719.104569,480 718,480 L704,480 C702.895431,480 702,479.104569 702,478 L702,469.000021 C701.448814,468.999824 700.900176,468.773097 700.505181,468.328728 C699.771345,467.503162 699.845707,466.239017 700.671272,465.505181 L703,463.435201 Z M706,466.120354 L706,476 L716,476 L716,466.120354 L711,461.67591 L706,466.120354 Z M718,447 C718,448.104569 717.104569,449 716,449 C714.895431,449 714,448.104569 714,447 C714,432.088312 701.911688,420 687,420 C672.088312,420 660,432.088312 660,447 C660,461.911688 672.088312,474 687,474 C688.104569,474 689,474.895431 689,476 C689,477.104569 688.104569,478 687,478 C669.879173,478 656,464.120827 656,447 C656,429.879173 669.879173,416 687,416 C704.120827,416 718,429.879173 718,447 Z M698,446 C699.104569,446 700,446.895431 700,448 C700,449.104569 699.104569,450 698,450 L686,450 C684.895431,450 684,449.104569 684,448 L684,430 C684,428.895431 684.895431,428 686,428 C687.104569,428 688,428.895431 688,430 L688,446 L698,446 Z" transform="translate(-656 -416)"></path></svg>