<svg height='300px' width='300px'  fill="#000000" xmlns="http://www.w3.org/2000/svg" viewBox="0 0 68 66" x="0px" y="0px"><path fill="#000000" d="M676.293489,459.343961 L657.036163,448.752432 C655.592884,447.958629 655.674208,445.858131 657.174539,445.178294 L721.174539,416.178294 C722.969906,415.364768 724.735216,417.364576 723.705203,419.045124 L685.705203,481.045124 C684.789491,482.539179 682.531546,482.216838 682.070472,480.526235 L676.293489,459.343961 Z M662.464335,447.172842 L678.963837,456.247568 C679.438519,456.508643 679.786986,456.951113 679.929528,457.473765 L684.712287,475.01055 L716.889032,422.511651 L662.464335,447.172842 Z M705,465.435201 L705,461 C705,459.895431 705.895431,459 707,459 C708.104569,459 709,459.895431 709,461 L709,461.879646 L711.671272,459.505181 C712.429044,458.831606 713.570956,458.831606 714.328728,459.505181 L723.328728,467.505181 C724.154293,468.239017 724.228655,469.503162 723.494819,470.328728 C723.099824,470.773097 722.551186,470.999824 722,471.000021 L722,480 C722,481.104569 721.104569,482 720,482 L706,482 C704.895431,482 704,481.104569 704,480 L704,471.000021 C703.448814,470.999824 702.900176,470.773097 702.505181,470.328728 C701.771345,469.503162 701.845707,468.239017 702.671272,467.505181 L705,465.435201 Z M718,468.120354 L713,463.67591 L708,468.120354 L708,478 L718,478 L718,468.120354 Z" transform="translate(-656 -416)"></path></svg>