<svg height='300px' width='300px'  fill="#000000" xmlns="http://www.w3.org/2000/svg" xmlns:xlink="http://www.w3.org/1999/xlink" version="1.1" x="0px" y="0px" viewBox="0 0 100 100" enable-background="new 0 0 100 100" xml:space="preserve"><g><path d="M50,36.774c12.663,0,32.13,0.564,32.13,0.564c0-2.23-0.722-3.718-0.722-3.718c-2.388-5.948-5.317-9.78-5.317-9.78   C71.089,23.48,59.328,22.444,50,22.444c-9.328,0-21.089,1.036-26.091,1.396c0,0-2.929,3.832-5.317,9.78   c0,0-0.721,1.487-0.721,3.718C17.871,37.338,37.338,36.774,50,36.774z"></path></g><path d="M50,52.307c11.179,0,16.932,1.3,18.568,2.068c2.328,1.091,5.847,3.901,5.847,5.651c0,1.651-2.342,3.652-3.813,4.033  c-1.778,0.461-5.72,0.729-20.602,0.729s-18.823-0.268-20.602-0.729c-1.471-0.381-3.813-2.382-3.813-4.033  c0-1.75,3.519-4.561,5.846-5.651C33.069,53.606,38.823,52.307,50,52.307 M50,51.307c-10.342,0-16.831,1.148-18.994,2.163  c-2.163,1.014-6.421,4.089-6.421,6.557c0,2.23,2.738,4.528,4.562,5.001c1.825,0.474,5.374,0.761,20.853,0.761  c15.479,0,19.027-0.287,20.853-0.761c1.825-0.473,4.562-2.771,4.562-5.001c0-2.468-4.259-5.543-6.422-6.557  C66.831,52.455,60.342,51.307,50,51.307L50,51.307z"></path><path d="M28.708,51.307c-4.292-3.38-9.497-5.813-18.959-5.813c0,0-0.541,1.622-0.541,2.906s0.406,2.434,0.98,2.907  c0.574,0.473,3.177,1.317,4.224,1.487c1.048,0.169,0.98-0.541,2.603-0.541S25.012,54.37,28.708,51.307"></path><path d="M71.292,51.307c4.292-3.38,9.497-5.813,18.96-5.813c0,0,0.54,1.622,0.54,2.906s-0.405,2.434-0.979,2.907  c-0.575,0.473-3.177,1.317-4.225,1.487c-1.048,0.169-0.98-0.541-2.603-0.541S74.987,54.37,71.292,51.307"></path><g><path d="M24.585,70.327c-1.281,0-5.235-0.515-7.36-0.791l-0.981-0.126c-0.437-0.049-0.583,0.019-0.797,0.154   c-0.191,0.122-0.454,0.289-0.899,0.289c-0.808,0-1.744-0.218-3.687-1.278c-2.191-1.195-2.693-5.801-2.693-6.454   c0-1.183,0.666-1.358,1.062-1.358c0.23,0,0.501,0.059,0.829,0.18c0.825,0.307,9.067,2.259,11.322,2.752   c3.258,0.713,4.449,5.109,4.449,5.457c0.001,0.18,0.003,0.552-0.288,0.846C25.323,70.216,25.001,70.327,24.585,70.327z    M15.99,68.394c0.111,0,0.235,0.007,0.375,0.024l0.989,0.127c1.952,0.254,6.015,0.782,7.231,0.782c0.16,0,0.235-0.028,0.25-0.039   c-0.005-0.004-0.006-0.072-0.006-0.109c-0.071-0.459-1.204-3.97-3.663-4.508c-1.765-0.386-10.472-2.425-11.457-2.791   c-0.262-0.098-0.406-0.117-0.48-0.117c-0.014-0.025-0.062,0.062-0.062,0.358c0,1.022,0.677,4.761,2.172,5.577   c1.861,1.016,2.642,1.155,3.208,1.155c0.154,0,0.215-0.039,0.363-0.133C15.127,68.583,15.425,68.394,15.99,68.394z"></path></g><g><path d="M75.415,70.326c-0.416,0-0.737-0.111-0.955-0.33c-0.291-0.293-0.289-0.665-0.288-0.824c0-0.369,1.19-4.766,4.448-5.479   c2.251-0.492,10.49-2.444,11.322-2.752c0.327-0.121,0.599-0.18,0.829-0.18c0.396,0,1.062,0.176,1.062,1.358   c0,0.653-0.502,5.26-2.694,6.455c-1.942,1.06-2.879,1.277-3.687,1.277c-0.445,0-0.707-0.167-0.898-0.289   c-0.215-0.136-0.355-0.205-0.799-0.154l-0.977,0.126C80.653,69.812,76.696,70.326,75.415,70.326z M75.185,69.305   c0.017,0,0.092,0.021,0.23,0.021c1.217,0,5.281-0.528,7.234-0.783l0.985-0.126c0.85-0.107,1.195,0.138,1.455,0.303   c0.147,0.094,0.208,0.133,0.362,0.133c0.566,0,1.348-0.14,3.208-1.155c1.495-0.815,2.173-4.555,2.173-5.577   c0-0.3-0.05-0.377-0.052-0.38c-0.085,0.021-0.229,0.041-0.491,0.139c-0.993,0.368-9.694,2.406-11.457,2.791   c-2.458,0.538-3.59,4.049-3.664,4.529c0.003,0.016,0.002,0.085,0.011,0.107C75.181,69.306,75.182,69.305,75.185,69.305z"></path></g><g><path d="M50,71.087c-5.525,0-20.554-0.149-20.705-0.151l-0.247-0.003L28.9,70.735c-0.578-0.77-1.164-2.694-1.229-2.911   l-0.208-0.698l0.726,0.057c2.285,0.176,15.549,0.252,21.811,0.252c6.262,0,19.525-0.076,21.812-0.252l0.726-0.057l-0.208,0.698   c-0.065,0.217-0.651,2.142-1.229,2.911l-0.147,0.197l-0.247,0.003C70.554,70.938,55.525,71.087,50,71.087z M29.571,69.938   c2.05,0.02,15.315,0.148,20.429,0.148s18.379-0.129,20.429-0.148c0.251-0.432,0.524-1.148,0.721-1.719   C67.531,68.369,55.782,68.435,50,68.435c-5.783,0-17.532-0.065-21.149-0.215C29.047,68.79,29.32,69.507,29.571,69.938z"></path></g><path d="M96,36.977c0-0.47-0.093-2.105-1.286-3.438c-1.284-1.436-6.255-1.82-6.879-1.82c-1.863,0-2.201,3.035-2.244,4.733  c-0.075,0.009-0.166,0.015-0.273,0.015c-0.047,0-0.086-0.005-0.118-0.012c-0.773-2.868-5.514-14.903-11.005-15.775l-0.696-0.111  C69.033,19.854,62.919,18.875,50,18.875c-12.92,0-19.035,0.979-23.499,1.693l-0.693,0.11c-5.496,0.873-10.238,12.918-11.007,15.775  c-0.032,0.007-0.071,0.012-0.118,0.012c-0.107,0-0.198-0.006-0.272-0.015c-0.043-1.699-0.382-4.733-2.245-4.733  c-0.624,0-5.595,0.384-6.879,1.821C4.093,34.872,4,36.507,4,36.977c0,0.483,0.191,2.085,2.653,2.427  c1.342,0.187,4.667,0.222,6.129,0.228c-0.051,0.037-0.104,0.076-0.161,0.117c-0.17,0.123-0.514,0.356-0.953,0.654  c-3.653,2.482-4.941,3.477-5.298,4.095c-0.729,1.265-1.475,3.568-1.475,11.066c0,3.706,0.173,4.983,0.341,6.219  c0.165,1.215,0.335,2.471,0.335,6.32v0.091l0.017,0.09c0.005,0.026,0.49,2.689,0.49,4.179c0,0.75,0.208,1.353,0.577,1.797  c0.048,1.668,0.119,3.091,0.22,3.656c0.226,1.262,1.105,2.208,1.792,2.208s7.401,0,8.527,0c1.041,0,1.581-1.417,1.658-5.226  l1.642,0.058c3,0.106,5.592,0.197,6.143,0.197c0.559,0,1.1-0.063,1.673-0.13c0.703-0.082,1.5-0.175,2.528-0.175  c0.594,0,1.787,0.023,3.438,0.055c3.509,0.068,9.382,0.182,15.725,0.182s12.216-0.113,15.725-0.182  c1.65-0.031,2.843-0.055,3.438-0.055c1.029,0,1.826,0.093,2.529,0.175c0.573,0.066,1.115,0.13,1.674,0.13  c0.549,0,3.128-0.091,6.114-0.196l1.668-0.059c0.077,3.809,0.617,5.226,1.658,5.226c1.126,0,7.841,0,8.527,0  s1.565-0.946,1.791-2.208c0.102-0.565,0.173-1.988,0.221-3.656c0.369-0.443,0.577-1.047,0.577-1.797c0-1.489,0.485-4.152,0.49-4.179  l0.017-0.09v-0.091c0-3.85,0.17-5.105,0.335-6.32c0.168-1.235,0.341-2.513,0.341-6.219c0-7.501-0.746-9.804-1.476-11.067  c-0.355-0.617-1.643-1.612-5.294-4.093c-0.44-0.299-0.785-0.533-0.955-0.656c-0.057-0.042-0.11-0.081-0.161-0.118  c1.463-0.006,4.787-0.042,6.128-0.228C95.809,39.062,96,37.459,96,36.977z M86.652,38.633c-2.18,0-1.306,0.65-1.128,0.857  c0.24,0.282,0.458,0.483,1.27,1.069c0.811,0.586,5.516,3.652,5.969,4.439c0.599,1.036,1.342,3.199,1.342,10.566  c0,7.368-0.676,4.8-0.676,12.539c0,0-0.507,2.76-0.507,4.359c0,1.453-0.913,1.622-1.555,1.622c-0.643,0-2.738-0.371-4.191-0.371  c-0.65,0-3.257,0.087-6.039,0.185c-3.435,0.12-7.137,0.255-7.771,0.255c-1.149,0-2.276-0.305-4.203-0.305  c-1.926,0-9.936,0.236-19.162,0.236s-17.236-0.236-19.163-0.236s-3.052,0.305-4.201,0.305c-0.636,0-4.34-0.135-7.773-0.255  c-2.783-0.098-5.388-0.185-6.039-0.185c-1.453,0-3.548,0.371-4.19,0.371s-1.555-0.169-1.555-1.622c0-1.6-0.507-4.359-0.507-4.359  c0-7.739-0.676-5.171-0.676-12.539c0-7.367,0.744-9.53,1.341-10.566c0.454-0.787,5.159-3.853,5.97-4.439  c0.812-0.586,1.028-0.787,1.269-1.069c0.178-0.207,1.052-0.857-1.128-0.857c-2.18,0-5.348-0.052-6.557-0.22  C5.575,38.244,5,37.687,5,36.977c0-0.591,0.169-1.808,1.031-2.771c0.862-0.963,5.002-1.487,6.134-1.487  c1.132,0,1.25,3.701,1.25,4.157c0,0.456,0.692,0.591,1.267,0.591s0.98-0.304,1.024-0.512c0.528-2.447,5.363-14.51,10.257-15.288  c4.543-0.721,10.517-1.792,24.036-1.792s19.492,1.07,24.037,1.792c4.893,0.777,9.728,12.84,10.256,15.288  c0.044,0.208,0.45,0.512,1.024,0.512s1.268-0.135,1.268-0.591c0-0.457,0.118-4.157,1.25-4.157c1.133,0,5.272,0.524,6.134,1.487  C94.831,35.168,95,36.385,95,36.977c0,0.71-0.574,1.268-1.791,1.437C92.001,38.581,88.832,38.633,86.652,38.633z"></path></svg>