<svg height='300px' width='300px'  fill="#000000" xmlns="http://www.w3.org/2000/svg" data-name="Layer 1" viewBox="0 0 100 100" x="0px" y="0px"><title>power</title><path d="M50,100C25.38,100,5.34,79.56,5.34,54.43A45.56,45.56,0,0,1,23,18.12a6.21,6.21,0,0,1,8.82,1.23,6.51,6.51,0,0,1-1.21,9A32.73,32.73,0,0,0,17.93,54.43c0,18,14.39,32.73,32.07,32.73S82.07,72.48,82.07,54.43A32.73,32.73,0,0,0,69.36,28.35a6.51,6.51,0,0,1-1.21-9A6.21,6.21,0,0,1,77,18.12,45.56,45.56,0,0,1,94.66,54.43C94.66,79.56,74.62,100,50,100Z"></path><path d="M50,58.9A6.6,6.6,0,0,1,43.71,52V6.87A6.6,6.6,0,0,1,50,0a6.6,6.6,0,0,1,6.29,6.87V52A6.6,6.6,0,0,1,50,58.9Z"></path></svg>