<?xml version="1.0" encoding="iso-8859-1"?>
<!-- Generator: Adobe Illustrator 19.0.0, SVG Export Plug-In . SVG Version: 6.00 Build 0)  -->
<svg version="1.1" id="Capa_1" xmlns="http://www.w3.org/2000/svg" xmlns:xlink="http://www.w3.org/1999/xlink" x="0px" y="0px"
	 viewBox="0 0 512 512" style="enable-background:new 0 0 512 512;" xml:space="preserve">
<g>
	<g>
		<path d="M247.467,85.333c-51.755,0-93.867,42.112-93.867,93.867c0,51.755,42.112,93.867,93.867,93.867
			s93.867-42.112,93.867-93.867S299.221,85.333,247.467,85.333z M247.467,256c-42.342,0-76.8-34.458-76.8-76.8
			c0-42.342,34.458-76.8,76.8-76.8c42.351,0,76.8,34.458,76.8,76.8C324.267,221.542,289.818,256,247.467,256z"/>
	</g>
</g>
<g>
	<g>
		<path d="M247.467,0C153.361,0,76.8,83.447,76.8,186.027c0,100.318,157.79,265.199,164.523,272.162
			c1.613,1.672,3.831,2.611,6.144,2.611c2.313,0,4.54-0.939,6.144-2.611c6.716-6.963,164.523-171.844,164.523-272.162
			C418.133,83.447,341.572,0,247.467,0z M247.467,439.8c-29.338-31.71-153.6-170.889-153.6-253.773
			c0-93.167,68.907-168.96,153.6-168.96s153.6,75.793,153.6,168.96C401.067,268.877,276.804,408.09,247.467,439.8z"/>
	</g>
</g>
<g>
	<g>
		<path d="M299.494,384.862c-2.679-0.026-5.239,1.05-6.938,3.115c-19.456,23.74-36.412,42.47-45.09,51.823
			c-8.576-9.25-25.267-27.674-44.459-51.055c-1.732-2.108-4.352-3.285-7.074-3.106C163.217,387.456,0,398.985,0,448
			c0,46.95,153.097,64,256,64s256-17.05,256-64.008C512,407.586,397.525,388.728,299.494,384.862z M256,494.933
			c-145.852,0-238.933-27.793-238.933-46.933c0-14.643,60.962-38.229,175.505-45.073c26.999,32.631,48.529,55.031,48.759,55.262
			c3.217,3.345,9.071,3.345,12.288,0c0.222-0.239,22.118-23.014,49.434-56.098c123.605,5.376,191.881,30.413,191.881,45.909
			C494.933,467.14,401.852,494.933,256,494.933z"/>
	</g>
</g>
<g>
</g>
<g>
</g>
<g>
</g>
<g>
</g>
<g>
</g>
<g>
</g>
<g>
</g>
<g>
</g>
<g>
</g>
<g>
</g>
<g>
</g>
<g>
</g>
<g>
</g>
<g>
</g>
<g>
</g>
</svg>
