<svg height='300px' width='300px'  fill="#000000" xmlns="http://www.w3.org/2000/svg" viewBox="0 0 20 25" x="0px" y="0px"><path fill-rule="evenodd" d="M180.604099,95.7969094 L180,96.2548478 L179.395901,95.7969094 C173.171601,91.0785658 170,86.5412115 170,82.1244252 C170,76.5359097 174.474056,72 180,72 C185.525944,72 190,76.5359097 190,82.1244252 C190,86.5412115 186.828399,91.0785658 180.604099,95.7969094 Z M188,82.1244252 C188,77.634379 184.415181,74 180,74 C175.584819,74 172,77.634379 172,82.1244252 C172,85.6487019 174.631106,89.5379517 180,93.7379639 C185.368894,89.5379517 188,85.6487019 188,82.1244252 Z M180,86 C177.790861,86 176,84.209139 176,82 C176,79.790861 177.790861,78 180,78 C182.209139,78 184,79.790861 184,82 C184,84.209139 182.209139,86 180,86 Z M180,84 C181.104569,84 182,83.1045695 182,82 C182,80.8954305 181.104569,80 180,80 C178.895431,80 178,80.8954305 178,82 C178,83.1045695 178.895431,84 180,84 Z" transform="translate(-170 -72)"></path></svg>