<svg height='300px' width='300px'  fill="#000000" xmlns:dc="http://purl.org/dc/elements/1.1/" xmlns:cc="http://creativecommons.org/ns#" xmlns:rdf="http://www.w3.org/1999/02/22-rdf-syntax-ns#" xmlns:svg="http://www.w3.org/2000/svg" xmlns="http://www.w3.org/2000/svg" xmlns:sodipodi="http://sodipodi.sourceforge.net/DTD/sodipodi-0.dtd" xmlns:inkscape="http://www.inkscape.org/namespaces/inkscape" viewBox="0 0 8.4666665 8.4666669" version="1.1" x="0px" y="0px"><g transform="translate(0,-288.53332)"><path style="color:#000000;font-style:normal;font-variant:normal;font-weight:normal;font-stretch:normal;font-size:medium;line-height:normal;font-family:sans-serif;text-indent:0;text-align:start;text-decoration:none;text-decoration-line:none;text-decoration-style:solid;text-decoration-color:#000000;letter-spacing:normal;word-spacing:normal;text-transform:none;direction:ltr;block-progression:tb;writing-mode:lr-tb;baseline-shift:baseline;text-anchor:start;white-space:normal;clip-rule:nonzero;display:inline;overflow:visible;visibility:visible;opacity:1;isolation:auto;mix-blend-mode:normal;color-interpolation:sRGB;color-interpolation-filters:linearRGB;solid-color:#000000;solid-opacity:1;fill:#000000;fill-opacity:1;fill-rule:nonzero;stroke:none;stroke-width:0.26500002;stroke-linecap:round;stroke-linejoin:round;stroke-miterlimit:4;stroke-dasharray:none;stroke-dashoffset:0;stroke-opacity:1;color-rendering:auto;image-rendering:auto;shape-rendering:auto;text-rendering:auto;enable-background:accumulate" d="m 1.0585938,291.95117 c -0.16922266,0 -0.30745483,0.11266 -0.3945313,0.25781 -0.0870765,0.14516 -0.13476561,0.33108 -0.13476562,0.53516 1e-8,0.20408 0.0476892,0.39 0.13476562,0.53516 0.0870765,0.14515 0.22530864,0.25781 0.3945313,0.25781 0.1692226,0 0.3074547,-0.11266 0.3945312,-0.25781 0.087077,-0.14516 0.1347656,-0.33108 0.1347656,-0.53516 0,-0.20408 -0.047689,-0.39 -0.1347656,-0.53516 -0.087077,-0.14515 -0.2253086,-0.25781 -0.3945312,-0.25781 z m 0,0.26367 c 0.04985,0 0.1095269,0.0367 0.1660156,0.13086 0.056489,0.0942 0.097656,0.23732 0.097656,0.39844 0,0.16112 -0.041168,0.30622 -0.097656,0.40039 -0.056489,0.0942 -0.1161653,0.12891 -0.1660156,0.12891 -0.04985,0 -0.11148016,-0.0347 -0.1679688,-0.12891 -0.0564886,-0.0942 -0.0957031,-0.23927 -0.0957031,-0.40039 1e-8,-0.16112 0.0392145,-0.30427 0.0957031,-0.39844 0.0564886,-0.0942 0.1181184,-0.13086 0.1679688,-0.13086 z"></path><path style="color:#000000;font-style:normal;font-variant:normal;font-weight:normal;font-stretch:normal;font-size:medium;line-height:normal;font-family:sans-serif;text-indent:0;text-align:start;text-decoration:none;text-decoration-line:none;text-decoration-style:solid;text-decoration-color:#000000;letter-spacing:normal;word-spacing:normal;text-transform:none;direction:ltr;block-progression:tb;writing-mode:lr-tb;baseline-shift:baseline;text-anchor:start;white-space:normal;clip-rule:nonzero;display:inline;overflow:visible;visibility:visible;opacity:1;isolation:auto;mix-blend-mode:normal;color-interpolation:sRGB;color-interpolation-filters:linearRGB;solid-color:#000000;solid-opacity:1;fill:#000000;fill-opacity:1;fill-rule:nonzero;stroke:none;stroke-width:0.26500002;stroke-linecap:round;stroke-linejoin:round;stroke-miterlimit:4;stroke-dasharray:none;stroke-dashoffset:0;stroke-opacity:1;color-rendering:auto;image-rendering:auto;shape-rendering:auto;text-rendering:auto;enable-background:accumulate" d="m 7.0097656,291.60156 a 0.13251326,0.13251326 0 0 0 -0.1308594,0.13477 c -0.00177,0.26547 0.074986,0.51392 0.2363282,0.67187 0.080635,0.079 0.1821262,0.12783 0.2890625,0.12891 0.1069363,0.001 0.2113891,-0.0453 0.2929687,-0.12305 0.1630841,-0.15562 0.2402347,-0.40443 0.2402344,-0.66992 a 0.1328125,0.1328125 0 1 0 -0.265625,0 c 2e-7,0.20875 -0.074395,0.39854 -0.1582031,0.47852 -0.0419,0.0399 -0.074964,0.0511 -0.1054688,0.0508 -0.030504,-3.1e-4 -0.065437,-0.0135 -0.1074219,-0.0547 -0.083962,-0.0822 -0.1576386,-0.27174 -0.15625,-0.48047 a 0.13251326,0.13251326 0 0 0 -0.1347656,-0.13672 z"></path><path style="color:#000000;font-style:normal;font-variant:normal;font-weight:normal;font-stretch:normal;font-size:medium;line-height:normal;font-family:sans-serif;text-indent:0;text-align:start;text-decoration:none;text-decoration-line:none;text-decoration-style:solid;text-decoration-color:#000000;letter-spacing:normal;word-spacing:normal;text-transform:none;direction:ltr;block-progression:tb;writing-mode:lr-tb;baseline-shift:baseline;text-anchor:start;white-space:normal;clip-rule:nonzero;display:inline;overflow:visible;visibility:visible;opacity:1;isolation:auto;mix-blend-mode:normal;color-interpolation:sRGB;color-interpolation-filters:linearRGB;solid-color:#000000;solid-opacity:1;fill:#000000;fill-opacity:1;fill-rule:nonzero;stroke:none;stroke-width:0.26500002;stroke-linecap:round;stroke-linejoin:round;stroke-miterlimit:4;stroke-dasharray:none;stroke-dashoffset:0;stroke-opacity:1;color-rendering:auto;image-rendering:auto;shape-rendering:auto;text-rendering:auto;enable-background:accumulate" d="m 5.4238281,291.95117 c -0.1692226,0 -0.3074547,0.11266 -0.3945312,0.25781 -0.087077,0.14516 -0.1347656,0.33108 -0.1347657,0.53516 10e-8,0.20408 0.047689,0.39 0.1347657,0.53516 0.087076,0.14515 0.2253086,0.25781 0.3945312,0.25781 0.1692226,0 0.3074549,-0.11266 0.3945313,-0.25781 0.087076,-0.14516 0.1347656,-0.33108 0.1347656,-0.53516 0,-0.20408 -0.047689,-0.39 -0.1347656,-0.53516 -0.087076,-0.14515 -0.2253087,-0.25781 -0.3945313,-0.25781 z m 0,0.26367 c 0.04985,0 0.1114802,0.0367 0.1679688,0.13086 0.056489,0.0942 0.095703,0.23732 0.095703,0.39844 0,0.16112 -0.039214,0.30622 -0.095703,0.40039 -0.056489,0.0942 -0.1181185,0.12891 -0.1679688,0.12891 -0.04985,0 -0.1095269,-0.0347 -0.1660156,-0.12891 -0.056489,-0.0942 -0.097656,-0.23927 -0.097656,-0.40039 10e-8,-0.16112 0.041168,-0.30427 0.097656,-0.39844 0.056489,-0.0942 0.1161653,-0.13086 0.1660156,-0.13086 z"></path><path style="color:#000000;font-style:normal;font-variant:normal;font-weight:normal;font-stretch:normal;font-size:medium;line-height:normal;font-family:sans-serif;text-indent:0;text-align:start;text-decoration:none;text-decoration-line:none;text-decoration-style:solid;text-decoration-color:#000000;letter-spacing:normal;word-spacing:normal;text-transform:none;direction:ltr;block-progression:tb;writing-mode:lr-tb;baseline-shift:baseline;text-anchor:start;white-space:normal;clip-rule:nonzero;display:inline;overflow:visible;visibility:visible;opacity:1;isolation:auto;mix-blend-mode:normal;color-interpolation:sRGB;color-interpolation-filters:linearRGB;solid-color:#000000;solid-opacity:1;fill:#000000;fill-opacity:1;fill-rule:nonzero;stroke:none;stroke-width:0.26500002;stroke-linecap:round;stroke-linejoin:round;stroke-miterlimit:4;stroke-dasharray:none;stroke-dashoffset:0;stroke-opacity:1;color-rendering:auto;image-rendering:auto;shape-rendering:auto;text-rendering:auto;enable-background:accumulate" d="m 3.96875,291.95117 c -0.1692226,0 -0.3074548,0.11266 -0.3945312,0.25781 -0.087077,0.14516 -0.1347657,0.33108 -0.1347657,0.53516 0,0.20408 0.047689,0.39 0.1347657,0.53516 0.087076,0.14515 0.2253086,0.25781 0.3945312,0.25781 0.1692226,0 0.3074548,-0.11266 0.3945312,-0.25781 0.087076,-0.14516 0.1347657,-0.33108 0.1347657,-0.53516 0,-0.20408 -0.047689,-0.39 -0.1347657,-0.53516 -0.087076,-0.14515 -0.2253086,-0.25781 -0.3945312,-0.25781 z m 0,0.26367 c 0.04985,0 0.1114801,0.0367 0.1679688,0.13086 0.056489,0.0942 0.095703,0.23732 0.095703,0.39844 0,0.16112 -0.039214,0.30622 -0.095703,0.40039 -0.056489,0.0942 -0.1181185,0.12891 -0.1679688,0.12891 -0.04985,0 -0.109527,-0.0347 -0.1660156,-0.12891 -0.056489,-0.0942 -0.097656,-0.23927 -0.097656,-0.40039 0,-0.16112 0.041168,-0.30427 0.097656,-0.39844 0.056489,-0.0942 0.1161653,-0.13086 0.1660156,-0.13086 z"></path><path style="color:#000000;font-style:normal;font-variant:normal;font-weight:normal;font-stretch:normal;font-size:medium;line-height:normal;font-family:sans-serif;text-indent:0;text-align:start;text-decoration:none;text-decoration-line:none;text-decoration-style:solid;text-decoration-color:#000000;letter-spacing:normal;word-spacing:normal;text-transform:none;direction:ltr;block-progression:tb;writing-mode:lr-tb;baseline-shift:baseline;text-anchor:start;white-space:normal;clip-rule:nonzero;display:inline;overflow:visible;visibility:visible;opacity:1;isolation:auto;mix-blend-mode:normal;color-interpolation:sRGB;color-interpolation-filters:linearRGB;solid-color:#000000;solid-opacity:1;fill:#000000;fill-opacity:1;fill-rule:nonzero;stroke:none;stroke-width:0.26500002;stroke-linecap:round;stroke-linejoin:round;stroke-miterlimit:4;stroke-dasharray:none;stroke-dashoffset:0;stroke-opacity:1;color-rendering:auto;image-rendering:auto;shape-rendering:auto;text-rendering:auto;enable-background:accumulate" d="m 2.5136719,291.95117 c -0.1692226,0 -0.3074548,0.11266 -0.3945313,0.25781 -0.087076,0.14516 -0.1347656,0.33108 -0.1347656,0.53516 0,0.20408 0.047689,0.39 0.1347656,0.53516 0.087076,0.14515 0.2253087,0.25781 0.3945313,0.25781 0.1692226,0 0.3074548,-0.11266 0.3945312,-0.25781 0.087076,-0.14516 0.1347656,-0.33108 0.1347657,-0.53516 -1e-7,-0.20408 -0.047689,-0.39 -0.1347657,-0.53516 -0.087076,-0.14515 -0.2253086,-0.25781 -0.3945312,-0.25781 z m 0,0.26367 c 0.04985,0 0.109527,0.0367 0.1660156,0.13086 0.056489,0.0942 0.097656,0.23732 0.097656,0.39844 -1e-7,0.16112 -0.041168,0.30622 -0.097656,0.40039 -0.056489,0.0942 -0.1161653,0.12891 -0.1660156,0.12891 -0.04985,0 -0.109527,-0.0347 -0.1660157,-0.12891 C 2.2911676,293.05036 2.25,292.90526 2.25,292.74414 c 0,-0.16112 0.041168,-0.30427 0.097656,-0.39844 0.056489,-0.0942 0.1161653,-0.13086 0.1660157,-0.13086 z"></path><path style="color:#000000;font-style:normal;font-variant:normal;font-weight:normal;font-stretch:normal;font-size:medium;line-height:normal;font-family:sans-serif;text-indent:0;text-align:start;text-decoration:none;text-decoration-line:none;text-decoration-style:solid;text-decoration-color:#000000;letter-spacing:normal;word-spacing:normal;text-transform:none;direction:ltr;block-progression:tb;writing-mode:lr-tb;baseline-shift:baseline;text-anchor:start;white-space:normal;clip-rule:nonzero;display:inline;overflow:visible;visibility:visible;opacity:1;isolation:auto;mix-blend-mode:normal;color-interpolation:sRGB;color-interpolation-filters:linearRGB;solid-color:#000000;solid-opacity:1;fill:#000000;fill-opacity:1;fill-rule:nonzero;stroke:none;stroke-width:0.26500002;stroke-linecap:round;stroke-linejoin:round;stroke-miterlimit:4;stroke-dasharray:none;stroke-dashoffset:0;stroke-opacity:1;color-rendering:auto;image-rendering:auto;shape-rendering:auto;text-rendering:auto;enable-background:accumulate" d="M 0.11914062,291.53516 C 0.05110864,291.54206 -5.0202426e-4,291.59959 0,291.66797 l 0,2.19726 c -1.7014416e-4,0.0734 0.0593906,0.13299 0.1328125,0.13282 l 8.2011719,0 c 0.073422,1.7e-4 0.1329826,-0.0594 0.1328125,-0.13282 l 0,-2.19726 c 1.646e-4,-0.0734 -0.059394,-0.13298 -0.1328125,-0.13281 -2.7380146,0 -5.4777883,0 -8.21484378,0 z m 0.14648438,0.26562 7.9355469,0 0,1.93164 -7.9355469,0 z"></path><path style="color:#000000;font-style:normal;font-variant:normal;font-weight:normal;font-stretch:normal;font-size:medium;line-height:normal;font-family:sans-serif;text-indent:0;text-align:start;text-decoration:none;text-decoration-line:none;text-decoration-style:solid;text-decoration-color:#000000;letter-spacing:normal;word-spacing:normal;text-transform:none;direction:ltr;block-progression:tb;writing-mode:lr-tb;baseline-shift:baseline;text-anchor:start;white-space:normal;clip-rule:nonzero;display:inline;overflow:visible;visibility:visible;opacity:1;isolation:auto;mix-blend-mode:normal;color-interpolation:sRGB;color-interpolation-filters:linearRGB;solid-color:#000000;solid-opacity:1;fill:#000000;fill-opacity:1;fill-rule:nonzero;stroke:none;stroke-width:0.26500002;stroke-linecap:round;stroke-linejoin:round;stroke-miterlimit:4;stroke-dasharray:none;stroke-dashoffset:0;stroke-opacity:1;color-rendering:auto;image-rendering:auto;shape-rendering:auto;text-rendering:auto;enable-background:accumulate" d="m 7.4121094,292.78711 c -0.1350769,-0.001 -0.2626896,0.0734 -0.3535156,0.19141 -0.181575,0.23618 -0.2257538,0.59425 -0.1386719,0.9121 a 0.13267204,0.13267204 0 0 0 0.2558593,-0.0703 c -0.065477,-0.23899 -0.014198,-0.53927 0.09375,-0.67969 0.053979,-0.0702 0.101968,-0.0902 0.140625,-0.0898 0.038657,3.9e-4 0.086824,0.0201 0.140625,0.0918 0.1076196,0.14329 0.1568436,0.44622 0.089844,0.68359 a 0.13251326,0.13251326 0 1 0 0.2539062,0.0723 c 0.089351,-0.31656 0.04651,-0.6753 -0.1328124,-0.91406 -0.089615,-0.11943 -0.2145325,-0.1959 -0.3496094,-0.19727 z"></path><path style="color:#000000;font-style:normal;font-variant:normal;font-weight:normal;font-stretch:normal;font-size:medium;line-height:normal;font-family:sans-serif;text-indent:0;text-align:start;text-decoration:none;text-decoration-line:none;text-decoration-style:solid;text-decoration-color:#000000;letter-spacing:normal;word-spacing:normal;text-transform:none;direction:ltr;block-progression:tb;writing-mode:lr-tb;baseline-shift:baseline;text-anchor:start;white-space:normal;clip-rule:nonzero;display:inline;overflow:visible;visibility:visible;opacity:1;isolation:auto;mix-blend-mode:normal;color-interpolation:sRGB;color-interpolation-filters:linearRGB;solid-color:#000000;solid-opacity:1;fill:#000000;fill-opacity:1;fill-rule:evenodd;stroke:none;stroke-width:0.26458335px;stroke-linecap:butt;stroke-linejoin:miter;stroke-miterlimit:4;stroke-dasharray:none;stroke-dashoffset:0;stroke-opacity:1;color-rendering:auto;image-rendering:auto;shape-rendering:auto;text-rendering:auto;enable-background:accumulate" d="m 6.3496094,291.68555 0,2.18359 0.265625,0 0,-2.18359 -0.265625,0 z"></path></g></svg>