<svg height='300px' width='300px'  fill="#000000" xmlns="http://www.w3.org/2000/svg" xmlns:xlink="http://www.w3.org/1999/xlink" viewBox="0 0 68 68" version="1.1" x="0px" y="0px"><title>home, house, building, location, map, pin</title><desc>Created with Sketch.</desc><g stroke="none" stroke-width="1" fill="none" fill-rule="evenodd"><g transform="translate(-176.000000, -56.000000)" fill="#000000" fill-rule="nonzero"><path d="M231.231091,90.5762028 C230.507624,91.1412657 229.492376,91.1412657 228.768909,90.5762028 C228.657424,90.4891274 228.463739,90.3326701 228.19947,90.1111192 C227.767836,89.7492567 227.289177,89.3310907 226.775078,88.8608125 C225.309549,87.520201 223.844741,86.0235574 222.473027,84.4019284 C218.446125,79.6413619 216,74.7870861 216,70 C216,62.2680135 222.268014,56 230,56 C237.731986,56 244,62.2680135 244,70 C244,74.7870861 241.553875,79.6413619 237.526973,84.4019284 C236.155259,86.0235574 234.690451,87.520201 233.224922,88.8608125 C232.710823,89.3310907 232.232164,89.7492567 231.80053,90.1111192 C231.536261,90.3326701 231.342576,90.4891274 231.231091,90.5762028 Z M230.525078,85.9093985 C231.872049,84.67724 233.219741,83.3002566 234.473027,81.8186343 C237.946125,77.7127686 240,73.6369038 240,70 C240,64.4771525 235.522847,60 230,60 C224.477153,60 220,64.4771525 220,70 C220,73.6369038 222.053875,77.7127686 225.526973,81.8186343 C226.780259,83.3002566 228.127951,84.67724 229.474922,85.9093985 C229.655301,86.0744029 229.83055,86.2320787 230,86.38216 C230.16945,86.2320787 230.344699,86.0744029 230.525078,85.9093985 Z M185,88.5714286 L185,82 C185,80.8954305 185.895431,80 187,80 C188.104569,80 189,80.8954305 189,82 L189,84.7619048 L197.62069,76.5517241 C198.393103,75.816092 199.606897,75.816092 200.37931,76.5517241 L221.37931,96.5517241 C222.179171,97.3134962 222.210048,98.5794497 221.448276,99.3793103 C220.686504,100.179171 219.42055,100.210048 218.62069,99.4482759 L218,98.8571429 L218,122 C218,123.104569 217.104569,124 216,124 L182,124 C180.895431,124 180,123.104569 180,122 L180,98.8571429 L179.37931,99.4482759 C178.57945,100.210048 177.313496,100.179171 176.551724,99.3793103 C175.789952,98.5794497 175.820829,97.3134962 176.62069,96.5517241 L185,88.5714286 Z M184,95.047619 L184,120 L214,120 L214,95.047619 L199,80.7619048 L184,95.047619 Z M230,76 C226.686292,76 224,73.3137085 224,70 C224,66.6862915 226.686292,64 230,64 C233.313708,64 236,66.6862915 236,70 C236,73.3137085 233.313708,76 230,76 Z M230,72 C231.104569,72 232,71.1045695 232,70 C232,68.8954305 231.104569,68 230,68 C228.895431,68 228,68.8954305 228,70 C228,71.1045695 228.895431,72 230,72 Z"></path></g></g></svg>