<?xml version="1.0" encoding="utf-8"?>
<svg viewBox="0 0 500 500" width="500" height="500" xmlns="http://www.w3.org/2000/svg" xmlns:bx="https://boxy-svg.com">
  <defs>
    <linearGradient id="color-0" bx:pinned="true">
      <stop style="stop-color: rgb(0, 0, 0);"/>
    </linearGradient>
  </defs>
  <g transform="matrix(5.08445, 0, 0, 6.037956, -3.872687, -52.014782)" style="">
    <path d="M 50.07 36.585 C 62.268 36.585 81.024 37.105 81.024 37.105 C 81.024 35.049 80.329 33.678 80.329 33.678 C 78.026 28.195 75.206 24.663 75.206 24.663 C 70.386 24.331 59.054 23.376 50.07 23.376 C 41.082 23.376 29.753 24.331 24.932 24.663 C 24.932 24.663 22.11 28.195 19.81 33.678 C 19.81 33.678 19.116 35.048 19.116 37.105 C 19.116 37.105 37.871 36.585 50.07 36.585 Z" style="paint-order: stroke; stroke: url(#color-0); stroke-width: 2.40922px; fill: url(#color-0);"/>
  </g>
  <path d="M 250.001 252.534 C 310.144 252.534 341.093 259.954 349.896 264.339 C 362.42 270.565 381.352 286.603 381.352 296.59 C 381.352 306.013 368.753 317.435 360.839 319.607 C 351.273 322.239 330.066 323.77 250.001 323.77 C 169.938 323.77 148.735 322.239 139.164 319.607 C 131.249 317.435 118.651 306.013 118.651 296.59 C 118.651 286.603 137.582 270.558 150.101 264.339 C 158.914 259.948 189.87 252.534 250.001 252.534 M 250.001 246.826 C 194.363 246.826 159.451 253.379 147.814 259.174 C 136.178 264.959 113.27 282.511 113.27 296.598 C 113.27 309.324 128 322.439 137.813 325.14 C 147.632 327.844 166.724 329.484 250.001 329.484 C 333.276 329.484 352.365 327.844 362.189 325.14 C 372.007 322.439 386.731 309.324 386.731 296.598 C 386.731 282.511 363.819 264.959 352.182 259.174 C 340.551 253.379 305.64 246.826 250.001 246.826 L 250.001 246.826 Z" style="stroke: url(#color-0); stroke-width: 5px;"/>
  <path d="M 135.452 246.826 C 112.361 227.536 84.359 213.65 33.454 213.65 C 33.454 213.65 30.543 222.908 30.543 230.236 C 30.543 237.565 32.726 244.127 35.815 246.826 C 38.903 249.528 52.908 254.345 58.54 255.315 C 64.178 256.28 63.813 252.226 72.544 252.226 C 81.276 252.226 115.566 264.309 135.452 246.826" style="stroke: url(#color-0);"/>
  <path d="M 364.552 246.826 C 387.64 227.536 415.643 213.65 466.553 213.65 C 466.553 213.65 469.459 222.908 469.459 230.236 C 469.459 237.565 467.28 244.127 464.192 246.826 C 461.098 249.528 447.099 254.345 441.46 255.315 C 435.824 256.28 436.19 252.226 427.459 252.226 C 418.726 252.226 384.43 264.309 364.552 246.826" style="stroke: url(#color-0);"/>
  <g transform="matrix(5.379932, 0, 0, 5.707444, -18.998524, -46.003242)" style="">
    <path d="M24.585,70.327c-1.281,0-5.235-0.515-7.36-0.791l-0.981-0.126c-0.437-0.049-0.583,0.019-0.797,0.154   c-0.191,0.122-0.454,0.289-0.899,0.289c-0.808,0-1.744-0.218-3.687-1.278c-2.191-1.195-2.693-5.801-2.693-6.454   c0-1.183,0.666-1.358,1.062-1.358c0.23,0,0.501,0.059,0.829,0.18c0.825,0.307,9.067,2.259,11.322,2.752   c3.258,0.713,4.449,5.109,4.449,5.457c0.001,0.18,0.003,0.552-0.288,0.846C25.323,70.216,25.001,70.327,24.585,70.327z    M15.99,68.394c0.111,0,0.235,0.007,0.375,0.024l0.989,0.127c1.952,0.254,6.015,0.782,7.231,0.782c0.16,0,0.235-0.028,0.25-0.039   c-0.005-0.004-0.006-0.072-0.006-0.109c-0.071-0.459-1.204-3.97-3.663-4.508c-1.765-0.386-10.472-2.425-11.457-2.791   c-0.262-0.098-0.406-0.117-0.48-0.117c-0.014-0.025-0.062,0.062-0.062,0.358c0,1.022,0.677,4.761,2.172,5.577   c1.861,1.016,2.642,1.155,3.208,1.155c0.154,0,0.215-0.039,0.363-0.133C15.127,68.583,15.425,68.394,15.99,68.394z" style="stroke: url(#color-0);"/>
  </g>
  <g transform="matrix(5.379932, 0, 0, 5.707444, -18.998524, -46.003242)" style="">
    <path d="M75.415,70.326c-0.416,0-0.737-0.111-0.955-0.33c-0.291-0.293-0.289-0.665-0.288-0.824c0-0.369,1.19-4.766,4.448-5.479   c2.251-0.492,10.49-2.444,11.322-2.752c0.327-0.121,0.599-0.18,0.829-0.18c0.396,0,1.062,0.176,1.062,1.358   c0,0.653-0.502,5.26-2.694,6.455c-1.942,1.06-2.879,1.277-3.687,1.277c-0.445,0-0.707-0.167-0.898-0.289   c-0.215-0.136-0.355-0.205-0.799-0.154l-0.977,0.126C80.653,69.812,76.696,70.326,75.415,70.326z M75.185,69.305   c0.017,0,0.092,0.021,0.23,0.021c1.217,0,5.281-0.528,7.234-0.783l0.985-0.126c0.85-0.107,1.195,0.138,1.455,0.303   c0.147,0.094,0.208,0.133,0.362,0.133c0.566,0,1.348-0.14,3.208-1.155c1.495-0.815,2.173-4.555,2.173-5.577   c0-0.3-0.05-0.377-0.052-0.38c-0.085,0.021-0.229,0.041-0.491,0.139c-0.993,0.368-9.694,2.406-11.457,2.791   c-2.458,0.538-3.59,4.049-3.664,4.529c0.003,0.016,0.002,0.085,0.011,0.107C75.181,69.306,75.182,69.305,75.185,69.305z" style="stroke: url(#color-0);"/>
  </g>
  <g transform="matrix(5.379932, 0, 0, 5.707444, -18.998524, -46.003242)" style="">
    <path d="M50,71.087c-5.525,0-20.554-0.149-20.705-0.151l-0.247-0.003L28.9,70.735c-0.578-0.77-1.164-2.694-1.229-2.911   l-0.208-0.698l0.726,0.057c2.285,0.176,15.549,0.252,21.811,0.252c6.262,0,19.525-0.076,21.812-0.252l0.726-0.057l-0.208,0.698   c-0.065,0.217-0.651,2.142-1.229,2.911l-0.147,0.197l-0.247,0.003C70.554,70.938,55.525,71.087,50,71.087z M29.571,69.938   c2.05,0.02,15.315,0.148,20.429,0.148s18.379-0.129,20.429-0.148c0.251-0.432,0.524-1.148,0.721-1.719   C67.531,68.369,55.782,68.435,50,68.435c-5.783,0-17.532-0.065-21.149-0.215C29.047,68.79,29.32,69.507,29.571,69.938z" style="stroke: url(#color-0); stroke-width: 0px;"/>
  </g>
  <path d="M 494.665 165.04 C 494.665 162.357 494.17 153.026 487.825 145.417 C 480.997 137.221 454.556 135.03 451.238 135.03 C 441.33 135.03 439.532 152.352 439.3 162.043 C 438.904 162.095 438.417 162.128 437.851 162.128 C 437.599 162.128 437.391 162.101 437.22 162.06 C 433.11 145.691 407.895 77.003 378.69 72.026 L 374.987 71.392 C 351.234 67.311 318.713 61.724 250.001 61.724 C 181.284 61.724 148.759 67.311 125.016 71.386 L 121.328 72.015 C 92.096 76.997 66.874 145.743 62.786 162.049 C 62.616 162.089 62.407 162.117 62.157 162.117 C 61.589 162.117 61.103 162.084 60.712 162.033 C 60.482 152.335 58.678 135.018 48.769 135.018 C 45.45 135.018 19.01 137.21 12.183 145.413 C 5.831 153.026 5.337 162.357 5.337 165.04 C 5.337 167.797 6.353 176.939 19.448 178.892 C 26.586 179.96 44.27 180.159 52.045 180.194 C 51.775 180.404 51.494 180.626 51.189 180.861 C 50.287 181.561 48.456 182.893 46.123 184.593 C 26.692 198.759 19.843 204.439 17.944 207.965 C 14.066 215.186 10.098 228.329 10.098 271.123 C 10.098 292.276 11.016 299.565 11.911 306.619 C 12.788 313.554 13.692 320.721 13.692 342.689 L 13.692 343.209 L 13.781 343.723 C 13.809 343.871 16.387 359.07 16.387 367.574 C 16.387 371.855 17.495 375.297 19.459 377.831 C 19.712 387.349 20.09 395.473 20.629 398.696 C 21.83 405.899 26.504 411.299 30.159 411.299 C 33.813 411.299 69.524 411.299 75.515 411.299 C 81.051 411.299 83.92 403.211 84.332 381.471 L 93.065 381.803 C 109.02 382.408 122.809 382.927 125.739 382.927 C 128.712 382.927 131.589 382.568 134.638 382.185 C 138.375 381.717 142.616 381.187 148.081 381.187 C 151.241 381.187 157.588 381.319 166.368 381.502 C 185.032 381.888 216.268 382.539 250.006 382.539 C 283.745 382.539 314.981 381.894 333.646 381.502 C 342.419 381.324 348.766 381.187 351.93 381.187 C 357.402 381.187 361.644 381.717 365.379 382.185 C 368.429 382.562 371.311 382.927 374.284 382.927 C 377.204 382.927 390.92 382.408 406.803 381.809 L 415.676 381.471 C 416.087 403.211 418.956 411.299 424.493 411.299 C 430.484 411.299 466.2 411.299 469.848 411.299 C 473.496 411.299 478.173 405.899 479.374 398.696 C 479.915 395.473 480.294 387.349 480.548 377.831 C 482.512 375.303 483.618 371.855 483.618 367.574 C 483.618 359.075 486.198 343.877 486.224 343.723 L 486.315 343.209 L 486.315 342.689 C 486.315 320.717 487.22 313.554 488.096 306.619 C 488.992 299.569 489.908 292.276 489.908 271.123 C 489.908 228.313 485.942 215.168 482.059 207.96 C 480.171 204.439 473.322 198.759 453.9 184.6 C 451.562 182.893 449.725 181.557 448.822 180.855 C 448.518 180.615 448.238 180.393 447.966 180.181 C 455.749 180.147 473.427 179.942 480.559 178.882 C 493.649 176.939 494.665 167.79 494.665 165.04 Z M 444.945 174.492 C 433.35 174.492 437.999 178.201 438.944 179.383 C 440.222 180.992 441.381 182.14 445.7 185.484 C 450.015 188.829 475.04 206.328 477.448 210.819 C 480.635 216.733 484.585 229.078 484.585 271.123 C 484.585 313.176 480.992 298.52 480.992 342.689 C 480.992 342.689 478.292 358.442 478.292 367.568 C 478.292 375.862 473.437 376.826 470.024 376.826 C 466.602 376.826 455.459 374.709 447.733 374.709 C 444.275 374.709 430.407 375.204 415.61 375.763 C 397.341 376.45 377.652 377.221 374.279 377.221 C 368.167 377.221 362.175 375.479 351.926 375.479 C 341.68 375.479 299.077 376.826 250.006 376.826 C 200.936 376.826 158.331 375.479 148.081 375.479 C 137.832 375.479 131.85 377.221 125.739 377.221 C 122.354 377.221 102.656 376.45 84.395 375.763 C 69.594 375.204 55.737 374.709 52.274 374.709 C 44.548 374.709 33.406 376.826 29.988 376.826 C 26.575 376.826 21.72 375.862 21.72 367.568 C 21.72 358.437 19.022 342.689 19.022 342.689 C 19.022 298.52 15.427 313.176 15.427 271.123 C 15.427 229.078 19.384 216.733 22.56 210.819 C 24.973 206.328 49.998 188.829 54.311 185.484 C 58.632 182.14 59.78 180.992 61.063 179.383 C 62.008 178.201 66.656 174.492 55.062 174.492 C 43.468 174.492 26.619 174.194 20.189 173.236 C 13.715 172.271 10.654 169.093 10.654 165.04 C 10.654 161.666 11.553 154.721 16.14 149.224 C 20.725 143.728 42.744 140.737 48.764 140.737 C 54.787 140.737 55.412 161.861 55.412 164.464 C 55.412 167.066 59.094 167.836 62.151 167.836 C 65.211 167.836 67.363 166.102 67.599 164.915 C 70.407 150.949 96.123 82.099 122.152 77.658 C 146.318 73.543 178.091 67.431 249.996 67.431 C 321.899 67.431 353.67 73.537 377.844 77.658 C 403.867 82.093 429.584 150.943 432.392 164.915 C 432.627 166.102 434.784 167.836 437.84 167.836 C 440.89 167.836 444.583 167.066 444.583 164.464 C 444.583 161.855 445.21 140.737 451.232 140.737 C 457.257 140.737 479.273 143.728 483.857 149.224 C 488.448 154.715 489.347 161.66 489.347 165.04 C 489.347 169.093 486.292 172.277 479.818 173.242 C 473.394 174.194 456.539 174.492 444.945 174.492 Z" style="stroke-miterlimit: 12; stroke: url(#color-0); stroke-width: 10px;"/>
</svg>