<svg height='300px' width='300px'  fill="#000000" xmlns="http://www.w3.org/2000/svg" xmlns:xlink="http://www.w3.org/1999/xlink" version="1.1" x="0px" y="0px" viewBox="0 0 100 100" enable-background="new 0 0 100 100" xml:space="preserve"><path fill-rule="evenodd" clip-rule="evenodd" d="M53.3735352,32.9472656h5.6225586v17.5195313l13.8935547,8.2695313  l-2.9052734,4.8242188l-16.6108398-9.90625V32.9472656z M78.1147461,28.8007813  c-2.1538086-2.1191406-4.449707-3.8515625-6.8881836-5.1992188L71.203125,23.578125  c-4.2734375-2.4179688-9.0610352-3.6191406-14.3623047-3.6074219c-8.3115234,0.0019531-15.3945313,2.9453125-21.2495117,8.8300781  C29.7353516,34.6542969,26.8066406,41.71875,26.8056641,50c-0.0004883,0.125,0.0073242,0.375,0.0234375,0.7480469H38.637207  L23.1743164,66.6289063L7.5004883,50.7480469h13.6821289c0-0.3710938,0-0.6210938,0-0.7480469  c-0.0009766-9.8339844,3.4741211-18.2285156,10.4257813-25.1796875  c6.9521484-6.9824219,15.3632813-10.4726563,25.2324219-10.4707031c6.3198242,0.0117188,12.0283203,1.4648438,17.1264648,4.3574219  l-0.0229492-0.0234375c2.871582,1.5878906,5.5737305,3.6328125,8.105957,6.1367188h0.0234375  C89.0253906,31.7714844,92.5004883,40.1660156,92.4995117,50c0.0009766,9.8339844-3.4741211,18.2265625-10.4257813,25.1796875  c-6.9863281,6.9824219-15.3969727,10.4726563-25.2329102,10.46875C47.15625,85.6523438,38.8779297,82.2949219,32.0068359,75.578125  l3.9594727-4.0058594c5.7841797,5.6347656,12.7426758,8.453125,20.8745117,8.4550781  c8.2832031-0.0019531,15.3662109-2.9453125,21.25-8.8300781C83.9472656,65.3457031,86.8754883,58.2792969,86.8764648,50  c-0.0009766-8.28125-2.9291992-15.3457031-8.7856445-21.1992188H78.1147461z"></path></svg>